<svg width="31" height="30" viewBox="0 0 31 30" fill="none" xmlns="http://www.w3.org/2000/svg">
<path fill-rule="evenodd" clip-rule="evenodd" d="M16.794 8.70599L19.25 6.25001C20.2671 5.23295 20.7756 4.72442 21.3872 4.61161C21.6271 4.56737 21.873 4.56737 22.1128 4.61161C22.7244 4.72442 23.233 5.23294 24.25 6.24999L24.25 6.25C25.2671 7.26706 25.7756 7.77558 25.8884 8.38723C25.9326 8.62706 25.9326 8.87295 25.8884 9.11277C25.7756 9.72442 25.2671 10.2329 24.25 11.25L21.8218 13.6782C19.7384 12.4797 18.0079 10.7624 16.794 8.70599ZM15.3397 10.1603L6.3564 19.1436C5.93134 19.5687 5.71881 19.7812 5.57907 20.0423C5.43934 20.3034 5.38039 20.5981 5.2625 21.1876L4.3971 25.5146C4.33058 25.8472 4.29732 26.0135 4.39193 26.1081C4.48654 26.2027 4.65284 26.1694 4.98545 26.1029L9.31243 25.2375C9.90189 25.1196 10.1966 25.0607 10.4577 24.9209C10.7188 24.7812 10.9313 24.5687 11.3564 24.1436L20.3637 15.1363C18.3311 13.8736 16.6151 12.1694 15.3397 10.1603Z" fill="#ECBD78"/>
</svg>
