<svg width="30" height="30" viewBox="0 0 30 30" fill="none" xmlns="http://www.w3.org/2000/svg">
<path fill-rule="evenodd" clip-rule="evenodd" d="M16.294 8.70598L18.75 6.25L18.75 6.25C19.7671 5.23295 20.2756 4.72442 20.8872 4.6116C21.1271 4.56737 21.373 4.56737 21.6128 4.6116C22.2244 4.72442 22.733 5.23294 23.75 6.24999L23.75 6.25C24.7671 7.26706 25.2756 7.77558 25.3884 8.38723C25.4326 8.62706 25.4326 8.87295 25.3884 9.11277C25.2756 9.72442 24.7671 10.2329 23.75 11.25L21.3218 13.6782C19.2384 12.4797 17.508 10.7624 16.294 8.70598ZM14.8397 10.1603L5.8564 19.1436C5.43134 19.5687 5.21881 19.7812 5.07907 20.0423C4.93934 20.3034 4.88039 20.5981 4.7625 21.1876L3.8971 25.5146C3.83058 25.8472 3.79732 26.0135 3.89193 26.1081C3.98654 26.2027 4.15284 26.1694 4.48545 26.1029L8.81243 25.2375C9.40189 25.1196 9.69661 25.0607 9.95771 24.9209C10.2188 24.7812 10.4313 24.5687 10.8564 24.1436L19.8637 15.1363C17.8311 13.8736 16.1151 12.1694 14.8397 10.1603Z" fill="white"/>
</svg>
