<svg width="30" height="31" viewBox="0 0 30 31" fill="none" xmlns="http://www.w3.org/2000/svg" stroke="currentColor">
<path d="M11.1562 7.81396L14.1094 10.8594C14.3906 11.1494 14.3906 11.6328 14.1094 11.9229L12.2813 13.8081C12 14.0981 11.5312 14.0981 11.25 13.8081L8.29688 10.7627" stroke-miterlimit="10"/>
<path d="M9.46875 9.89258L11.5312 12.0195" stroke-miterlimit="10"/>
<path d="M10.3594 8.97412L12.4219 11.1011" stroke-miterlimit="10"/>
<path d="M13.7812 14.3882L13.2188 13.8081" stroke-miterlimit="10"/>
<path d="M16.8281 15.6934L21.4688 20.479C21.5156 20.5273 21.5156 20.5757 21.4688 20.5757L20.6719 21.3975C20.625 21.4458 20.5781 21.4458 20.5781 21.3975L16.3125 16.9502" stroke-miterlimit="10"/>
<path d="M14.1094 12.8896L14.5781 13.4214" stroke-miterlimit="10"/>
<path d="M13.5938 15.5L20.8594 8.00732H20.9063L20.6719 9.69922C20.5313 10.5693 20.1563 11.3911 19.5469 12.0195L15.8906 15.79L15.1875 15.5967L14.4375 16.3701" stroke-miterlimit="10"/>
<path d="M13.125 17.772L9.79687 21.2041C9.75 21.2524 9.70313 21.2524 9.65625 21.2041L8.90625 20.479C8.85938 20.4307 8.85938 20.3823 8.90625 20.334L13.2656 15.8384" stroke-miterlimit="10"/>
<path d="M14.9531 18.3521V24.9746H14.6719C14.0625 24.3462 13.2187 24.0078 12.375 24.0078H5.29688C5.25 24.0078 5.25 23.9595 5.25 23.9595V5.05859C5.25 5.01025 5.29688 5.01025 5.29688 5.01025H14.4844C14.7656 5.01025 14.9531 5.25195 14.9531 5.49365V9.16748" stroke-miterlimit="10"/>
<path d="M15.0469 18.3521V24.9746H15.3281C15.9375 24.3462 16.7812 24.0078 17.625 24.0078H24.7031C24.75 24.0078 24.75 23.9595 24.75 23.9595V5.05859C24.75 5.01025 24.7031 5.01025 24.7031 5.01025H15.5156C15.2344 5.01025 15.0469 5.25195 15.0469 5.49365V9.16748" stroke-miterlimit="10"/>
<path d="M24.7969 25.0229V25.8931C24.7969 25.9414 24.75 25.9897 24.7031 25.9897H5.29687C5.25 25.9897 5.20312 25.9414 5.20312 25.8931V25.0229" stroke-miterlimit="10"/>
</svg>
