<svg width="32" height="33" viewBox="0 0 32 33" fill="none" xmlns="http://www.w3.org/2000/svg">
<path d="M4 12.0312C4 8.26001 4 6.3744 5.17157 5.20282C6.34315 4.03125 8.22876 4.03125 12 4.03125H20C23.7712 4.03125 25.6569 4.03125 26.8284 5.20282C28 6.3744 28 8.26001 28 12.0313V20.0313C28 23.8025 28 25.6881 26.8284 26.8597C25.6569 28.0313 23.7712 28.0313 20 28.0313H12C8.22876 28.0313 6.34315 28.0313 5.17157 26.8597C4 25.6881 4 23.8025 4 20.0313V12.0312Z" stroke="black" stroke-width="1.5"/>
<path d="M16 10.698L16 21.3647" stroke="black" stroke-width="1.5" stroke-linecap="square" stroke-linejoin="round"/>
<path d="M21.3334 16.0312L10.6667 16.0312" stroke="black" stroke-width="1.5" stroke-linecap="square" stroke-linejoin="round"/>
</svg>
