<svg width="30" height="30" viewBox="0 0 30 30" fill="none" xmlns="http://www.w3.org/2000/svg">
<g clip-path="url(#clip0_58_1061)">
<path d="M22.6579 27.3155C22.6579 28.1582 22.0576 28.3127 21.7258 28.3347H17.63C16.773 28.3347 16.6429 27.6761 16.6273 27.3737V15.691C17.7647 14.9164 18.5405 13.8415 18.7233 12.6274C18.8077 12.1272 18.3192 12.0743 18.1615 12.0722H16.652C16.7785 10.5224 18.0607 9.3014 19.6426 9.3014C21.3079 9.3014 22.6579 10.651 22.6579 12.3169V27.3155ZM12.3605 16.0586C10.3852 16.0586 8.75978 14.9306 8.53544 13.4781C8.48046 13.1305 8.89333 13.1351 8.89333 13.1351H15.8432C15.9298 13.1369 16.1933 13.1665 16.1956 13.4303C16.0004 14.9056 14.3566 16.0586 12.3605 16.0586ZM21.6158 8.12458C21.6043 8.11566 21.5947 8.10718 21.5783 8.0978C21.0888 7.81713 21.1071 7.29996 21.1071 7.29996V3.3166C21.1071 2.82858 21.4142 2.8421 21.4142 2.8421L21.4105 2.83317C21.6855 2.79903 21.7725 2.60702 21.7918 2.45465V0.701359C21.7918 0.107932 21.3454 0.012155 21.1347 0H18.1175C17.5443 0 17.4732 0.471523 17.4663 0.661464V2.2058C17.4663 2.70371 17.7509 2.81507 17.9012 2.83933V2.83978H17.9022C17.926 2.84346 17.9452 2.84639 17.9608 2.84689C18.0451 2.86707 18.1945 2.95301 18.1945 3.3166V7.46771C18.1753 7.63934 18.0905 7.89893 17.7821 8.07057C17.7638 8.0804 17.7579 8.08978 17.7427 8.09967C16.2887 8.80678 15.2828 10.2896 15.2828 12.0147V12.0729H6.54822C6.08169 12.0729 5.98824 12.3005 5.97931 12.4617C6.22332 14.7908 8.62733 16.6561 11.6735 16.9036V27.1492C11.6722 27.2729 11.6452 27.6945 11.3583 27.985L9.81832 29.5321C9.69919 29.6632 9.52504 29.906 9.89851 29.906H14.8172C15.1815 29.906 15.0169 29.6741 14.8992 29.545L14.819 29.4634L14.8176 29.4615L13.4002 28.0273C13.0927 27.7166 13.0382 27.3582 13.0304 27.1964V16.9045C13.836 16.8408 14.5935 16.6607 15.2836 16.3922V17.6592V19.4799V29.21C15.2873 29.3837 15.3596 30 16.2157 30H22.8667C23.8616 30 24.005 29.3571 24.0207 29.0711V12.0143C24.0198 10.3111 23.0392 8.84243 21.6158 8.12458Z" fill="#BD2F2F"/>
</g>
<defs>
<clipPath id="clip0_58_1061">
<rect width="30" height="30" fill="white"/>
</clipPath>
</defs>
</svg>
