<svg width="32" height="32" viewBox="0 0 32 32" fill="none" xmlns="http://www.w3.org/2000/svg">
<path d="M11.9304 2.53938L11.4329 1.6719L11.9304 2.53938ZM12.0696 2.53938L12.5671 1.6719L12.0696 2.53938ZM11.4329 1.6719C11.0312 1.90227 9.31992 2.93939 7.69918 4.79822C6.07285 6.66346 4.5 9.40265 4.5 13.0003H6.5C6.5 10.025 7.79264 7.73431 9.20664 6.11259C10.6262 4.48444 12.1302 3.57755 12.4278 3.40687L11.4329 1.6719ZM19.5 13.0003C19.5 9.40265 17.9271 6.66346 16.3008 4.79822C14.6801 2.93939 12.9688 1.90227 12.5671 1.6719L11.5722 3.40687C11.8698 3.57755 13.3738 4.48445 14.7934 6.11259C16.2074 7.73431 17.5 10.025 17.5 13.0003H19.5ZM17.5 13.0003C17.5 16.0379 15.0376 18.5003 12 18.5003V20.5003C16.1421 20.5003 19.5 17.1424 19.5 13.0003H17.5ZM12 18.5003C8.96243 18.5003 6.5 16.0379 6.5 13.0003H4.5C4.5 17.1424 7.85786 20.5003 12 20.5003V18.5003ZM12.4278 3.40687C12.1634 3.55847 11.8365 3.55847 11.5722 3.40687L12.5671 1.6719C12.2153 1.47013 11.7847 1.47012 11.4329 1.6719L12.4278 3.40687Z" fill="#52AD0A"/>
<path d="M15.4999 13.9739L14.4999 13.9764L14.4999 13.9811L15.4999 13.9739ZM8.5 13.9999L7.5 14L8.5 13.9999ZM12.085 6.56461L11.4663 7.35026L12.085 6.56461ZM11.2963 5.77891C10.6682 6.27345 7.49995 9.00922 7.49994 13.9998L9.49994 13.9998C9.49995 9.91942 12.0915 7.69836 12.5336 7.35023L11.2963 5.77891ZM16.4999 13.9715C16.4879 8.99892 13.3307 6.27272 12.7037 5.77896L11.4663 7.35026C11.9077 7.6978 14.4901 9.91115 14.4999 13.9764L16.4999 13.9715ZM14.4999 13.9811C14.5 13.9873 14.5 13.9934 14.5 13.9996H16.5C16.5 13.9886 16.5 13.9777 16.4999 13.9668L14.4999 13.9811ZM14.5 13.9996C14.5 15.3803 13.3807 16.4996 12 16.4996V18.4996C14.4853 18.4996 16.5 16.4849 16.5 13.9996H14.5ZM12 16.4996C10.6194 16.4996 9.50012 15.3804 9.5 13.9998L7.5 14C7.50021 16.4851 9.51485 18.4996 12 18.4996V16.4996ZM7.49994 13.9998C7.49994 14.5196 7.91572 14.9998 8.49997 14.9998V12.9998C9.08419 12.9998 9.49994 13.48 9.49994 13.9998L7.49994 13.9998ZM9.5 13.9998C9.49995 13.4577 9.06236 12.9998 8.49997 12.9998V14.9998C7.93762 14.9998 7.50005 14.542 7.5 14L9.5 13.9998ZM12.5336 7.35023C12.2206 7.59671 11.7785 7.59606 11.4663 7.35026L12.7037 5.77896C12.2908 5.45385 11.71 5.45313 11.2963 5.77891L12.5336 7.35023Z" fill="#52AD0A"/>
<path d="M12 22V14" stroke="#52AD0A" stroke-width="2"/>
<circle cx="12" cy="14" r="1" fill="#52AD0A"/>
</svg>
