<svg width="30" height="33" viewBox="0 0 30 33" fill="none" xmlns="http://www.w3.org/2000/svg" stroke="currentColor">
<path d="M19.25 11C19.25 13.6922 17.2815 15.75 15 15.75C12.7185 15.75 10.75 13.6922 10.75 11C10.75 8.30778 12.7185 6.25 15 6.25C17.2815 6.25 19.25 8.30778 19.25 11Z" stroke-width="1.5" stroke-linecap="round"/>
<path d="M5.7994 24.5981C5.90175 23.9456 5.95292 23.6194 6.89806 22.1773C7.45048 21.3344 9.37541 19.6879 10.2937 19.2727C11.8649 18.5625 12.7909 18.5625 14.6431 18.5625H15.3569C17.2091 18.5625 18.1351 18.5625 19.7063 19.2727C20.6246 19.6879 22.5495 21.3344 23.1019 22.1773C24.0471 23.6194 24.0983 23.9456 24.2006 24.5981C24.2323 24.8001 24.2602 25.0058 24.284 25.215C24.3401 25.7091 24.3681 25.9562 24.2695 26.1946C24.1888 26.3898 24.0141 26.5854 23.8293 26.6876C23.6035 26.8125 23.3273 26.8125 22.775 26.8125H7.225C6.67268 26.8125 6.39652 26.8125 6.17066 26.6876C5.98586 26.5854 5.8112 26.3898 5.7305 26.1946C5.63187 25.9562 5.65992 25.7091 5.716 25.215C5.73975 25.0058 5.76772 24.8001 5.7994 24.5981Z" stroke-width="1.5" stroke-linecap="round"/>
</svg>
