<svg width="32" height="32" viewBox="0 0 32 32" fill="none" xmlns="http://www.w3.org/2000/svg">
<path fill-rule="evenodd" clip-rule="evenodd" d="M16 23C16.5523 23 17 23.4477 17 24V27C17 27.5523 16.5523 28 16 28C15.4477 28 15 27.5523 15 27V24C15 23.4477 15.4477 23 16 23Z" fill="black"/>
<path d="M11.5 19C12.3284 19 13 18.3284 13 17.5C13 16.6716 12.3284 16 11.5 16C10.6716 16 10 16.6716 10 17.5C10 18.3284 10.6716 19 11.5 19Z" fill="black"/>
<path d="M20.5 19C21.3284 19 22 18.3284 22 17.5C22 16.6716 21.3284 16 20.5 16C19.6716 16 19 16.6716 19 17.5C19 18.3284 19.6716 19 20.5 19Z" fill="black"/>
<path fill-rule="evenodd" clip-rule="evenodd" d="M13.2929 21.2929C13.6834 20.9024 14.3166 20.9024 14.7071 21.2929L16 22.5858L17.2929 21.2929C17.6834 20.9024 18.3166 20.9024 18.7071 21.2929C19.0976 21.6834 19.0976 22.3166 18.7071 22.7071L16.7071 24.7071C16.3166 25.0976 15.6834 25.0976 15.2929 24.7071L13.2929 22.7071C12.9024 22.3166 12.9024 21.6834 13.2929 21.2929Z" fill="black"/>
<path fill-rule="evenodd" clip-rule="evenodd" d="M25.7323 3.29235C25.9948 3.22645 26.268 3.21453 26.5353 3.25732C26.803 3.30018 27.0593 3.39704 27.2884 3.54202C27.5176 3.687 27.7149 3.87706 27.8683 4.10066C28.0217 4.32426 28.1281 4.57672 28.1809 4.8427L28.183 4.85341L30.2337 15.8075C30.6073 17.8497 27.9904 19.0575 26.6895 17.4063L18.2137 6.61772C18.0041 6.35104 17.9441 5.99634 18.0541 5.67554C18.1641 5.35475 18.4292 5.11157 18.7583 5.02959L25.7309 3.2927L25.7323 3.29235ZM20.7407 6.59689L28.2605 16.1686L28.2624 16.171L28.2636 16.1704L28.2666 16.169L28.2663 16.1674L26.2191 5.23219L26.2167 5.23279L20.7407 6.59689Z" fill="black"/>
<path fill-rule="evenodd" clip-rule="evenodd" d="M6.26753 3.29235L6.26893 3.2927L13.2415 5.02959C13.5706 5.11157 13.8357 5.35475 13.9457 5.67554C14.0557 5.99634 13.9957 6.35104 13.7861 6.61772L5.31028 17.4063C4.00936 19.0575 1.39253 17.8497 1.76611 15.8075L1.76686 15.8034L3.81887 4.84269C3.87168 4.57671 3.97808 4.32426 4.1315 4.10066C4.28492 3.87706 4.4822 3.687 4.71136 3.54202C4.94052 3.39704 5.19677 3.30018 5.46453 3.25732C5.73181 3.21453 6.005 3.22645 6.26753 3.29235ZM5.7807 5.2322L3.73347 16.1674L3.73327 16.1685L3.73619 16.1704L3.73737 16.171L3.73906 16.1689L11.2591 6.59689L5.7807 5.2322Z" fill="black"/>
<path fill-rule="evenodd" clip-rule="evenodd" d="M12 6C12 5.44772 12.4477 5 13 5H19C19.5523 5 20 5.44772 20 6C20 6.55228 19.5523 7 19 7H13C12.4477 7 12 6.55228 12 6Z" fill="black"/>
<path fill-rule="evenodd" clip-rule="evenodd" d="M6 13.9126C6.55228 13.9126 7 14.3603 7 14.9126V23.0001C7 23.7957 7.31607 24.5588 7.87868 25.1214C8.44129 25.684 9.20435 26.0001 10 26.0001H22C22.7956 26.0001 23.5587 25.684 24.1213 25.1214C24.6839 24.5588 25 23.7957 25 23.0001V14.9126C25 14.3603 25.4477 13.9126 26 13.9126C26.5523 13.9126 27 14.3603 27 14.9126V23.0001C27 24.3262 26.4732 25.5979 25.5355 26.5356C24.5979 27.4733 23.3261 28.0001 22 28.0001H10C8.67392 28.0001 7.40215 27.4733 6.46447 26.5356C5.52678 25.5979 5 24.3262 5 23.0001V14.9126C5 14.3603 5.44772 13.9126 6 13.9126Z" fill="black"/>
</svg>
