<svg width="30" height="31" viewBox="0 0 30 31" fill="none" xmlns="http://www.w3.org/2000/svg" stroke="currentColor">
<path d="M14.6379 27.7752V27.0035L16.2377 25.3057L21.5531 19.2348C20.8306 19.1833 20.1597 19.3377 19.5405 19.6978L15.8765 21.9615C15.8249 22.0644 13.451 21.7043 13.3994 21.6528L12.1093 19.2348C12.006 19.029 11.7996 18.9775 11.5416 18.9775C11.232 18.9775 10.9739 19.0804 10.9739 19.3891L10.8707 24.0195C10.8707 24.6368 11.0771 25.2028 11.4384 25.6658L11.49 25.7687L10.9739 27.3636V27.8266"  stroke-miterlimit="10"/>
<path d="M16.3925 21.3955L16.0312 19.0803H16.3925C16.8569 19.0803 17.2182 19.3376 17.373 19.7492L17.889 20.9325"  stroke-miterlimit="10"/>
<path d="M27.1264 18.6689H4.93607C4.88446 18.6689 4.78125 18.6174 4.78125 18.5145V17.2283C4.78125 17.1769 4.83286 17.074 4.93607 17.074H27.1264C27.178 17.074 27.2812 17.1254 27.2812 17.2283V18.566C27.2296 18.6174 27.178 18.6689 27.1264 18.6689Z"  stroke-miterlimit="10"/>
<path d="M6.84546 17.074C6.84546 11.9807 10.9739 7.91626 16.0312 7.91626C21.0886 7.91626 25.217 12.0321 25.217 17.074"  stroke-miterlimit="10"/>
<path d="M16.0312 6.78436C16.6297 6.78436 17.1149 6.30064 17.1149 5.70395C17.1149 5.10725 16.6297 4.62354 16.0312 4.62354C15.4327 4.62354 14.9475 5.10725 14.9475 5.70395C14.9475 6.30064 15.4327 6.78436 16.0312 6.78436Z"  stroke-miterlimit="10"/>
</svg>
