<svg width="32" height="32" viewBox="0 0 32 32" fill="none" xmlns="http://www.w3.org/2000/svg">
<path d="M12.1992 10.4417C11.8629 9.32082 11.6948 8.76037 11.6989 8.30622C11.7107 7.00148 12.5645 5.85397 13.8108 5.46776C14.2446 5.33333 14.8298 5.33333 16 5.33333V5.33333C17.1703 5.33333 17.7554 5.33333 18.1892 5.46776C19.4356 5.85397 20.2893 7.00148 20.3011 8.30622C20.3052 8.76037 20.1371 9.32082 19.8008 10.4417L17.7165 17.3896C17.554 17.9312 17.4728 18.202 17.2874 18.3827C17.2238 18.4447 17.1522 18.4979 17.0746 18.541C16.8482 18.6667 16.5655 18.6667 16 18.6667V18.6667C15.4346 18.6667 15.1518 18.6667 14.9255 18.541C14.8478 18.4979 14.7762 18.4447 14.7127 18.3827C14.5273 18.202 14.446 17.9312 14.2836 17.3896L12.1992 10.4417Z" stroke="#DD8A0F" stroke-width="2"/>
<ellipse cx="16" cy="25.3333" rx="2.66667" ry="2.66667" stroke="#DD8A0F" stroke-width="2"/>
</svg>
